<svg xmlns="http://www.w3.org/2000/svg" width="1em" height="1em" viewBox="0 0 32 32"><!-- Icon from Quill Icons by Casper Lourens - https://github.com/yourtempo/tempo-quill-icons/blob/main/LICENSE --><mask id="SVG9i8vndUf" fill="#fff"><path d="M17.5 21.5a1.5 1.5 0 1 1-3 0a1.5 1.5 0 0 1 3 0"/></mask><g fill="none" stroke="currentColor" stroke-width="2"><path stroke-linecap="round" d="M16 18v-6M6.358 27h19.284c1.516 0 2.48-1.62 1.759-2.953l-9.642-17.8c-.757-1.397-2.761-1.397-3.518 0L4.6 24.047C3.877 25.38 4.842 27 6.358 27Z"/><path fill="currentColor" d="M17.5 21.5a1.5 1.5 0 1 1-3 0a1.5 1.5 0 0 1 3 0Z" mask="url(#SVG9i8vndUf)"/></g></svg>