<svg xmlns="http://www.w3.org/2000/svg" width="1em" height="1em" viewBox="0 0 32 32"><!-- Icon from Quill Icons by Casper Lourens - https://github.com/yourtempo/tempo-quill-icons/blob/main/LICENSE --><path fill="none" stroke="currentColor" stroke-linecap="round" stroke-linejoin="round" stroke-width="2" d="m7 13l3 6.5l3-6.5m3.5 0v6.5m4-2.225h1.48c.651 0 1.277-.275 1.721-.75a2.34 2.34 0 0 0 .215-2.932a1.4 1.4 0 0 0-1.14-.593H20.5zm0 0V19.5M5 7h22a2 2 0 0 1 2 2v14a2 2 0 0 1-2 2H5a2 2 0 0 1-2-2V9a2 2 0 0 1 2-2"/></svg>